<?xml version="1.0" encoding="utf-8"?>
<!-- Generator: Adobe Illustrator 24.1.2, SVG Export Plug-In . SVG Version: 6.00 Build 0)  -->
<svg version="1.1" id="Camada_1" xmlns="http://www.w3.org/2000/svg" xmlns:xlink="http://www.w3.org/1999/xlink" x="0px" y="0px"
	 viewBox="0 0 90 79" style="enable-background:new 0 0 90 79;" xml:space="preserve">
<g>
	<path d="M1056.51,363.68c3.5-12.98,6.74-24.99,9.99-36.99c2.57-9.48,5.33-18.91,7.61-28.45c0.6-2.51,0.44-5.68-0.57-8.03
		c-29.07-67.55,11.33-143.25,83.69-156.62c61.41-11.35,121.9,32.04,130.78,93.8c10.61,73.75-48.61,136.23-122.69,129.41
		c-12.54-1.15-24.48-4.64-36.02-9.72c-2.35-1.03-5.54-1.34-8.01-0.7C1100.02,351.89,1078.84,357.68,1056.51,363.68z M1076.81,343.16
		c2.44-0.51,3.88-0.74,5.28-1.11c13.35-3.56,26.73-7.03,40.03-10.79c3.43-0.97,6.17-0.63,9.46,0.79c7.61,3.28,15.33,6.68,23.35,8.58
		c38.37,9.13,78.64-6.35,101.77-38.58c23.31-32.49,24.67-75.62,3.46-109.62c-20.95-33.59-60.12-51.4-99.13-45.07
		c-64.68,10.48-101.4,80.56-73.07,139.68c1.85,3.87,2.26,7.22,1.07,11.36C1084.84,312.92,1081.03,327.56,1076.81,343.16z"/>
	<path d="M1200.5,298.55c-5.03-1.05-10.3-1.47-15.06-3.25c-30.04-11.19-50.8-31.86-60.87-62.35c-2.15-6.5-2.13-14.18-1.26-21.09
		c1.26-10,9.68-17.18,17.84-17.31c4.6-0.07,7.58,1.88,9.14,6.19c2.1,5.79,4.24,11.56,6.47,17.3c1.65,4.24,0.75,7.61-2.51,10.82
		c-6.97,6.85-7.01,8.34-2.03,16.75c6.37,10.77,15.28,18.74,26.27,24.59c4.51,2.4,8.54,2.11,11.57-1.91
		c4.51-5.98,9.71-6.68,16.21-3.63c3.75,1.76,7.82,2.82,11.75,4.2c9.32,3.26,11.61,11.84,5.21,19.61
		C1217.36,295.6,1209.59,298.26,1200.5,298.55z"/>
</g>
<path d="M216.67,252.93c0.54-3.11,2.63-3.55,5.41-3.56c11.2-0.04,22.4-0.28,33.59-0.44c0,1.33,0,2.67,0,4
	C242.67,252.93,229.67,252.93,216.67,252.93z"/>
<g>
	<path d="M78.13,39.57c0,18.33-14.83,33.11-33.19,33.08c-18.32-0.03-33.09-14.87-33.07-33.23C11.89,21.11,26.75,6.31,45.09,6.34
		C63.42,6.37,78.13,21.17,78.13,39.57z M75.43,39.43C75.42,22.71,61.83,9.12,45.08,9.08c-16.82-0.05-30.45,13.56-30.45,30.4
		c0,16.85,13.65,30.53,30.41,30.47C61.87,69.89,75.45,56.26,75.43,39.43z"/>
	<path d="M65.97,39.66c0,3.56,0.02,7.11-0.01,10.67c-0.05,5.61-4.23,9.96-9.86,10.04c-7.41,0.1-14.82,0.1-22.23,0
		c-5.54-0.08-9.76-4.37-9.82-9.91c-0.08-7.35-0.08-14.7,0-22.05c0.06-5.7,4.41-9.93,10.14-9.96c7.23-0.04,14.46-0.04,21.69,0
		c5.72,0.03,10.02,4.31,10.08,10.01C66.01,32.19,65.98,35.93,65.97,39.66z M27.88,39.3c0,3.56-0.02,7.12,0.01,10.67
		c0.04,4.03,2.54,6.57,6.56,6.59c7.06,0.03,14.11,0.04,21.17,0c3.94-0.02,6.48-2.54,6.5-6.45c0.04-7.12,0.04-14.23,0-21.35
		c-0.02-3.95-2.52-6.45-6.45-6.47c-7.12-0.03-14.23-0.04-21.35,0c-3.92,0.02-6.4,2.56-6.43,6.51C27.86,32.3,27.89,35.8,27.88,39.3z"
		/>
	<path d="M34.88,39.34c0.04-5.61,4.65-10.19,10.22-10.12c5.6,0.07,10.14,4.69,10.1,10.27c-0.04,5.61-4.63,10.13-10.25,10.08
		C39.29,49.52,34.84,44.99,34.88,39.34z M51.35,39.45c0.02-3.49-2.79-6.33-6.3-6.35c-3.5-0.02-6.36,2.8-6.39,6.28
		c-0.02,3.44,2.88,6.37,6.32,6.38C48.45,45.78,51.33,42.92,51.35,39.45z"/>
	<path d="M58.24,28.66c0,1.38-1.09,2.47-2.47,2.48c-1.36,0.01-2.48-1.11-2.48-2.47c0-1.39,1.08-2.46,2.48-2.46
		C57.18,26.2,58.24,27.25,58.24,28.66z"/>
</g>
</svg>
