<?xml version="1.0" encoding="utf-8"?>
<!-- Generator: Adobe Illustrator 24.1.2, SVG Export Plug-In . SVG Version: 6.00 Build 0)  -->
<svg version="1.1" id="Camada_1" xmlns="http://www.w3.org/2000/svg" xmlns:xlink="http://www.w3.org/1999/xlink" x="0px" y="0px"
	 viewBox="0 0 90 79" style="enable-background:new 0 0 90 79;" xml:space="preserve">
<g>
	<path d="M44.94,2.49c20.02-0.18,36.73,16.3,36.93,36.43c0.21,20.58-16.09,37.43-36.34,37.59C25.06,76.67,8.37,60.36,8.13,39.93
		C7.89,19.39,24.32,2.68,44.94,2.49z M11.88,39.53c0.01,18.31,14.78,33.09,33.1,33.14c18.23,0.05,33.2-14.85,33.22-33.06
		C78.21,21.2,63.29,6.26,44.92,6.3C26.67,6.34,11.87,21.22,11.88,39.53z"/>
	<path d="M42.01,33.36c0,2.02,0,4.07,0,6.3c-1.05,0.09-1.98,0.14-2.9,0.24c-3.46,0.4-5.88,3.29-5.65,6.73
		c0.22,3.26,3.03,5.88,6.28,5.87c3.26-0.01,6.09-2.52,6.17-5.93c0.15-6.77,0.07-13.55,0.08-20.32c0-0.57,0-1.15,0-1.72
		c0-5.39,0-5.44,5.3-4.93c0.8,0.08,1.85,0.62,2.27,1.28c2.28,3.63,5.21,6.32,9.95,7.07c-0.44,2.22-0.84,4.22-1.38,6.99
		c-3.19-1.32-6.01-2.49-9.19-3.8c0,2.87,0.03,5.88-0.01,8.88c-0.03,2.76,0.12,5.56-0.24,8.28c-0.94,7.06-7.97,12.11-14.96,10.97
		C30.17,58.05,25.36,51.1,26.8,43.5C28.13,36.48,34.93,31.89,42.01,33.36z"/>
</g>
<g>
	<path d="M1056.51,363.68c3.5-12.98,6.74-24.99,9.99-36.99c2.57-9.48,5.33-18.91,7.61-28.45c0.6-2.51,0.44-5.68-0.57-8.03
		c-29.07-67.55,11.33-143.25,83.69-156.62c61.41-11.35,121.9,32.04,130.78,93.8c10.61,73.75-48.61,136.23-122.69,129.41
		c-12.54-1.15-24.48-4.64-36.02-9.72c-2.35-1.03-5.54-1.34-8.01-0.7C1100.02,351.89,1078.84,357.68,1056.51,363.68z M1076.81,343.16
		c2.44-0.51,3.88-0.74,5.28-1.11c13.35-3.56,26.73-7.03,40.03-10.79c3.43-0.97,6.17-0.63,9.46,0.79c7.61,3.28,15.33,6.68,23.35,8.58
		c38.37,9.13,78.64-6.35,101.77-38.58c23.31-32.49,24.67-75.62,3.46-109.62c-20.95-33.59-60.12-51.4-99.13-45.07
		c-64.68,10.48-101.4,80.56-73.07,139.68c1.85,3.87,2.26,7.22,1.07,11.36C1084.84,312.92,1081.03,327.56,1076.81,343.16z"/>
	<path d="M1200.5,298.55c-5.03-1.05-10.3-1.47-15.06-3.25c-30.04-11.19-50.8-31.86-60.87-62.35c-2.15-6.5-2.13-14.18-1.26-21.09
		c1.26-10,9.68-17.18,17.84-17.31c4.6-0.07,7.58,1.88,9.14,6.19c2.1,5.79,4.24,11.56,6.47,17.3c1.65,4.24,0.75,7.61-2.51,10.82
		c-6.97,6.85-7.01,8.34-2.03,16.75c6.37,10.77,15.28,18.74,26.27,24.59c4.51,2.4,8.54,2.11,11.57-1.91
		c4.51-5.98,9.71-6.68,16.21-3.63c3.75,1.76,7.82,2.82,11.75,4.2c9.32,3.26,11.61,11.84,5.21,19.61
		C1217.36,295.6,1209.59,298.26,1200.5,298.55z"/>
</g>
</svg>
