<?xml version="1.0" encoding="utf-8"?>
<!-- Generator: Adobe Illustrator 24.1.2, SVG Export Plug-In . SVG Version: 6.00 Build 0)  -->
<svg version="1.1" id="Camada_1" xmlns="http://www.w3.org/2000/svg" xmlns:xlink="http://www.w3.org/1999/xlink" x="0px" y="0px"
	 viewBox="0 0 90 79" style="enable-background:new 0 0 90 79;" xml:space="preserve">
<g>
	<path d="M11.76,72.62c1-3.71,1.92-7.14,2.85-10.57c0.73-2.71,1.52-5.4,2.17-8.13c0.17-0.72,0.13-1.62-0.16-2.29
		c-8.3-19.3,3.24-40.92,23.91-44.74c17.54-3.24,34.82,9.15,37.36,26.8C80.92,54.76,64,72.61,42.84,70.66
		c-3.58-0.33-6.99-1.32-10.29-2.78c-0.67-0.3-1.58-0.38-2.29-0.2C24.19,69.25,18.13,70.91,11.76,72.62z M17.55,66.76
		c0.7-0.15,1.11-0.21,1.51-0.32c3.81-1.02,7.64-2.01,11.43-3.08c0.98-0.28,1.76-0.18,2.7,0.22c2.17,0.94,4.38,1.91,6.67,2.45
		c10.96,2.61,22.47-1.81,29.07-11.02c6.66-9.28,7.05-21.6,0.99-31.32c-5.99-9.6-17.17-14.68-28.32-12.88
		c-18.48,3-28.97,23.01-20.87,39.9c0.53,1.1,0.65,2.06,0.3,3.25C19.85,58.12,18.76,62.3,17.55,66.76z"/>
	<path d="M52.89,54.02c-1.44-0.3-2.94-0.42-4.3-0.93c-8.58-3.2-14.51-9.1-17.39-17.81c-0.61-1.86-0.61-4.05-0.36-6.03
		c0.36-2.86,2.77-4.91,5.1-4.95c1.31-0.02,2.16,0.54,2.61,1.77c0.6,1.65,1.21,3.3,1.85,4.94c0.47,1.21,0.21,2.17-0.72,3.09
		c-1.99,1.96-2,2.38-0.58,4.79c1.82,3.08,4.37,5.35,7.51,7.03c1.29,0.69,2.44,0.6,3.3-0.55c1.29-1.71,2.77-1.91,4.63-1.04
		c1.07,0.5,2.23,0.81,3.36,1.2c2.66,0.93,3.32,3.38,1.49,5.6C57.71,53.17,55.49,53.93,52.89,54.02z"/>
</g>
</svg>
